<svg version="1.1" id="Layer_1" xmlns="http://www.w3.org/2000/svg" xmlns:xlink="http://www.w3.org/1999/xlink" x="0px" y="0px"
	 height="200" width="200" viewBox="0 0 1024 1024" enable-background="new 0 0 1024 1024" xml:space="preserve">
<path fill="#E4D9FF" opacity="1.000000" stroke="none" 
	d="
M571.615723,518.826721 
	C577.162476,519.476074 579.268127,517.109009 578.991577,512.022034 
	C578.783936,508.201538 578.943054,504.362549 578.811829,500.536163 
	C578.662415,496.183533 576.756165,493.636322 571.950378,494.088318 
	C569.988647,494.272858 567.995178,494.118835 565.704712,494.118835 
	C564.415344,498.306122 564.320312,502.770905 564.359924,507.224457 
	C564.422852,514.300049 563.208252,521.156616 560.977173,527.831299 
	C557.266052,538.933472 548.830261,544.426941 537.981140,547.099121 
	C529.622437,549.157837 522.688965,557.400635 521.719299,565.824524 
	C521.004456,572.034363 521.952942,578.138672 522.596558,584.248474 
	C522.996155,588.041748 525.093262,591.050232 528.434998,593.135010 
	C530.119934,594.186218 531.732239,595.394470 533.217773,596.711731 
	C534.403015,597.762695 534.879333,599.252319 534.242493,600.805847 
	C533.618164,602.328857 532.139282,602.426697 530.828430,602.240479 
	C517.022217,600.279297 503.195343,602.687866 489.410950,601.948120 
	C485.532410,601.739929 484.414368,603.078674 483.860931,606.171082 
	C485.308685,607.560242 486.976105,607.606812 488.649780,607.427307 
	C497.293915,606.500427 505.967560,607.073486 514.625793,606.897644 
	C523.737305,606.712463 532.711609,607.153625 541.522949,603.160278 
	C549.104431,599.724304 557.305847,601.970215 564.996643,604.374695 
	C568.729553,605.541809 572.561584,606.712646 576.258728,605.856873 
	C584.202454,604.018311 592.172668,605.806213 599.891357,606.177002 
	C619.533142,607.120789 639.134888,606.084106 658.738770,606.684387 
	C661.439270,606.767029 663.959229,606.242004 666.538635,605.367126 
	C676.938782,601.839417 687.358337,600.935608 697.624451,605.969238 
	C699.486938,606.882385 701.481873,606.882935 703.491211,606.880066 
	C747.980164,606.816772 792.469543,606.655884 836.957520,606.841492 
	C842.532288,606.864746 845.348694,604.941711 847.508545,600.034180 
	C852.137573,589.516541 852.289673,589.672546 843.844421,582.163513 
	C826.566040,566.800598 814.137817,548.516357 810.078796,525.296509 
	C809.717407,523.228760 809.076843,521.791382 806.977722,520.663025 
	C802.457825,518.233521 802.605713,516.105530 807.253662,513.374084 
	C808.649231,512.553955 809.583374,511.749664 809.826477,510.043152 
	C814.213318,479.251221 833.325378,459.085297 858.218201,443.104950 
	C864.263794,439.223877 870.555908,435.821167 877.307617,433.326111 
	C880.218811,432.250305 883.024414,432.053528 884.424255,435.546570 
	C885.865662,439.143402 888.211853,438.873779 891.311462,437.948151 
	C893.887085,437.179016 897.608948,434.196503 899.138672,438.209473 
	C900.698853,442.302399 896.195557,443.114502 893.386719,444.171661 
	C890.586853,445.225464 889.960571,446.998108 890.566711,449.638794 
	C890.825989,450.768616 891.123596,451.929504 891.110596,453.072937 
	C891.088928,454.972961 890.616028,456.848236 888.496338,457.429047 
	C886.606934,457.946716 885.412048,456.648132 884.319763,455.311188 
	C879.512817,449.427490 879.416321,449.297211 873.184448,453.500183 
	C854.153564,466.335266 841.196167,483.406921 836.863220,506.361725 
	C835.984863,511.015259 837.116638,512.613464 841.869324,512.603455 
	C847.692627,512.591125 853.514160,512.117249 859.338196,511.888763 
	C861.606750,511.799713 862.881226,510.209869 864.263794,508.792938 
	C868.217590,504.740753 872.890198,501.980011 878.493713,501.006042 
	C887.035645,499.521301 893.765442,505.046234 893.514160,513.305969 
	C893.424683,516.245056 893.028687,518.847900 889.198425,519.531372 
	C886.174377,520.070923 886.329346,521.884644 887.988281,524.275208 
	C896.600769,536.685913 894.684753,546.266174 881.954895,554.545227 
	C879.658569,556.038696 878.541382,557.750671 878.129944,560.501160 
	C877.170654,566.914490 875.829590,573.273132 874.548157,579.634766 
	C873.875549,582.974060 874.018921,585.759644 877.348633,587.867371 
	C880.481201,589.850403 882.757446,590.258362 884.359985,586.229065 
	C885.152527,584.236511 886.059998,581.807495 888.903992,582.703125 
	C891.496460,583.519531 891.482605,586.067688 891.238464,588.190186 
	C890.809448,591.920654 891.446228,594.646973 895.619019,595.778625 
	C897.382629,596.256897 899.004700,597.744019 898.276001,599.944031 
	C897.413208,602.548950 895.244690,602.171082 893.283081,601.424011 
	C888.997803,599.791931 886.199280,600.896606 884.996948,605.894165 
	C888.979187,607.566711 893.145264,606.424744 897.153015,606.754578 
	C903.073486,607.241699 906.266724,609.955444 907.382324,615.791199 
	C908.339355,620.797546 907.341553,622.154236 902.098206,622.189392 
	C888.099792,622.283264 874.097412,622.410706 860.103149,622.159912 
	C855.580078,622.078918 852.647522,623.421265 850.329468,627.361511 
	C836.923767,650.149048 816.678528,663.203979 791.106750,668.640320 
	C770.215393,673.081604 751.164124,668.132812 733.161316,657.599060 
	C718.005859,648.731262 704.118347,638.112427 690.893799,626.618530 
	C688.212219,624.287842 685.452271,623.154602 681.888000,623.171204 
	C666.556763,623.242615 651.224609,623.119751 635.892822,623.113159 
	C634.270996,623.112488 632.552979,622.807251 630.694702,624.082947 
	C631.045044,627.277527 633.695923,628.979858 635.843079,630.805481 
	C651.064880,643.747986 665.939758,657.098083 681.723267,669.381531 
	C696.721313,681.053589 712.483032,691.568359 728.438416,701.872559 
	C741.875061,710.549988 756.345642,717.473938 769.416138,726.738770 
	C774.336853,730.226746 778.966614,734.009766 783.116882,738.355347 
	C794.512573,750.287231 797.225281,764.092163 791.177490,779.359314 
	C785.390625,793.967712 772.512878,801.942932 756.278198,802.318542 
	C741.061279,802.670532 729.258118,796.295105 719.681213,785.066467 
	C705.303772,768.208923 691.257874,751.062317 676.628357,734.427917 
	C662.335999,718.176941 647.398621,702.494934 632.912842,686.411499 
	C621.098572,673.294373 609.435364,660.037354 597.912476,646.663757 
	C594.148010,642.294739 590.227844,639.590149 584.088562,639.078674 
	C573.819763,638.223145 565.143616,633.003723 557.528748,626.246216 
	C555.103516,624.093994 552.638733,623.146423 549.456970,623.144043 
	C533.458740,623.132080 517.460510,623.006226 501.462585,622.877380 
	C498.841949,622.856323 496.321960,623.109375 494.957306,625.656311 
	C486.290222,641.832642 465.242981,642.313965 449.710022,634.561584 
	C437.818481,628.626465 437.566254,628.523254 428.320862,637.782471 
	C420.814301,645.300293 413.228607,652.735168 406.260773,660.829834 
	C398.659973,669.659912 390.093781,677.723450 382.395203,686.450317 
	C356.625916,715.661682 328.580200,742.830505 304.475800,773.537537 
	C297.687927,782.184814 289.851471,789.961609 281.146576,796.731201 
	C266.386658,808.209717 241.293060,806.392212 228.329178,793.072144 
	C213.916428,778.263733 215.050476,755.247192 230.434967,741.461304 
	C240.890915,732.091858 253.591644,726.449158 265.361328,719.278137 
	C283.438660,708.264160 301.043335,696.573181 318.241180,684.243652 
	C328.243713,677.072632 338.569855,670.339050 348.388885,662.929626 
	C361.784088,652.821533 375.182770,642.681946 387.747009,631.538208 
	C390.454956,629.136475 394.665771,628.200195 396.048645,624.230042 
	C394.188446,622.566589 392.268402,622.977661 390.518005,622.972534 
	C377.185974,622.933167 363.851532,623.124634 350.522369,622.932190 
	C342.910095,622.822388 337.580872,626.429626 333.250427,632.158386 
	C332.448334,633.219482 331.692841,634.329224 331.036163,635.484863 
	C321.533569,652.206909 305.592804,653.505188 291.280457,649.504150 
	C279.426819,646.190369 270.120239,638.826538 261.969116,630.236572 
	C255.448730,623.365173 249.653625,621.407654 239.923401,624.456116 
	C219.801193,630.760132 199.131134,629.737061 178.944519,623.267517 
	C175.818192,622.265503 173.740570,623.278320 171.877167,625.351074 
	C167.828171,629.854980 164.655380,634.890747 162.836594,640.741089 
	C161.686371,644.440918 163.031540,647.599243 164.591370,650.777649 
	C167.282639,656.261475 166.118073,659.854004 160.659882,662.584290 
	C153.324860,666.253540 146.282501,663.437683 139.395264,661.142212 
	C136.904388,660.312012 134.524582,659.255676 131.885666,658.779419 
	C122.598495,657.103394 118.427452,650.170898 121.608521,641.095398 
	C122.821503,637.634827 122.280571,635.788025 118.956459,634.528381 
	C116.552887,633.617676 114.067383,632.154846 113.387009,629.796326 
	C111.832649,624.408325 108.243034,621.554565 103.564102,618.892822 
	C98.252205,615.870789 96.740990,609.513062 99.019127,604.542480 
	C101.422379,599.298828 108.384979,596.019836 114.649780,597.159546 
	C117.830368,597.738220 120.914421,599.799194 124.266983,597.633911 
	C129.785019,594.070129 134.337265,589.433044 138.599579,584.532654 
	C140.137299,582.764709 138.402054,581.069824 137.308182,579.668579 
	C125.917366,565.076538 119.552116,548.497070 117.932236,530.124573 
	C117.586021,526.197815 115.963577,524.453918 112.120491,524.208923 
	C109.996254,524.073486 107.275810,523.729919 106.918892,521.209595 
	C106.516869,518.370728 109.513504,517.878418 111.396461,517.435059 
	C116.612648,516.206970 118.155174,512.976807 119.027733,507.903442 
	C121.773338,491.939453 129.077759,477.956055 139.787476,465.878235 
	C142.799561,462.481354 142.404236,460.281067 139.203217,457.723785 
	C137.514389,456.374542 135.881683,454.921387 134.407532,453.343353 
	C129.779739,448.389252 124.862457,447.092987 117.981117,449.336395 
	C106.699028,453.014557 97.463142,447.302490 97.917938,437.757935 
	C98.269096,430.388367 101.982735,424.769531 108.651611,421.475403 
	C111.720016,419.959778 114.036415,417.987305 116.140938,415.231720 
	C123.844528,405.144836 137.805511,404.223541 146.864777,413.071960 
	C148.815933,414.977753 150.794968,415.820465 153.478500,415.814148 
	C195.975449,415.713989 238.472549,415.662262 280.969604,415.647705 
	C283.753632,415.646759 286.051422,414.838135 288.401337,413.310364 
	C296.054993,408.334259 304.017944,408.053955 311.996765,412.613556 
	C314.206024,413.876068 316.379395,414.848724 319.011383,414.847382 
	C337.009796,414.838165 355.008209,414.914825 373.006622,414.920013 
	C374.267181,414.920380 375.697601,415.244141 376.757477,414.005127 
	C376.694794,412.134338 375.258820,411.120026 374.132538,409.987000 
	C366.501770,402.310730 359.227173,394.214935 351.057770,387.157227 
	C342.198914,379.503845 331.429138,376.102539 319.577881,376.987396 
	C306.656158,377.952148 295.166779,374.306519 285.150330,366.221161 
	C271.496948,355.199951 259.226135,342.832458 249.203964,328.342468 
	C239.322037,314.055298 230.078430,299.410553 225.124481,282.564148 
	C220.460342,266.703308 220.497467,250.706223 224.515472,234.698441 
	C224.758011,233.732162 225.056137,232.774414 225.403854,231.840790 
	C228.986603,222.220337 233.574722,220.900803 241.199631,227.547684 
	C275.484985,257.435333 309.741241,287.356415 343.956146,317.324707 
	C352.873810,325.135529 357.842194,334.700623 356.087341,346.945404 
	C355.275970,352.606659 357.503021,356.975861 361.741119,360.549286 
	C367.977722,365.807800 374.700806,370.613892 380.274506,376.504211 
	C388.080688,384.753723 398.549591,389.743683 405.853729,398.521088 
	C409.524414,402.932098 415.886383,404.170868 419.502045,408.365295 
	C425.166077,414.935974 432.122406,415.098450 439.717865,414.871124 
	C448.708618,414.602020 457.715210,414.778870 466.713501,414.883698 
	C470.364960,414.926239 473.840363,414.920959 475.875000,410.622040 
	C476.039307,416.550354 475.805298,422.295807 473.818359,427.789093 
	C473.161224,429.605927 470.996277,429.261047 469.359650,429.270355 
	C462.027283,429.311829 454.694275,429.266510 447.362366,429.339355 
	C445.604095,429.356812 443.676025,428.831146 442.156219,430.280029 
	C444.020020,435.107178 451.429626,440.676147 456.190887,440.606201 
	C465.055481,440.475922 467.721039,440.172729 462.452606,450.188354 
	C458.437714,457.820923 461.085693,466.213623 461.863464,474.260651 
	C462.115051,476.863770 463.206970,479.386017 463.917786,481.944336 
	C464.401276,483.684570 465.193573,485.438934 463.636292,487.159210 
	C461.308105,487.230957 460.780457,485.124939 459.803467,483.776215 
	C456.579529,479.325409 453.785461,474.542511 450.347565,470.272583 
	C445.817902,464.646667 440.193024,460.713348 432.438721,460.965912 
	C426.977997,461.143799 423.088684,463.786072 421.239685,468.690521 
	C416.553192,481.121490 416.718475,493.802887 420.545807,506.403473 
	C421.790833,510.502319 424.948334,513.172180 429.346954,513.544006 
	C433.653046,513.908020 435.978027,510.938660 437.682709,507.511536 
	C439.015320,504.832367 440.179962,502.064514 441.308380,499.290924 
	C441.985077,497.627625 442.811646,496.236389 444.842499,496.380890 
	C447.230286,496.550812 447.832764,498.413940 447.860931,500.291138 
	C447.905823,503.278595 447.536346,506.269775 447.491974,509.261597 
	C447.365936,517.759277 447.326294,526.258179 447.228912,534.756348 
	C447.202179,537.089966 447.439850,539.621521 444.185364,540.152954 
	C441.086700,540.658875 440.266876,538.593323 439.429779,536.215759 
	C438.606415,533.877380 437.641266,531.505310 436.274048,529.458069 
	C432.457031,523.742676 427.180939,523.660034 422.723480,528.979858 
	C420.267792,531.910645 418.992584,535.401245 418.710419,539.047424 
	C417.887695,549.678955 417.349335,560.350464 420.210052,570.810486 
	C422.880890,580.576111 429.438110,584.249817 439.120422,581.656189 
	C447.222290,579.485901 452.606750,574.044617 456.807739,567.156006 
	C457.586334,565.879333 458.147491,564.471680 458.895355,563.174255 
	C459.567780,562.007629 460.355530,560.771423 461.997986,561.349915 
	C463.362518,561.830383 463.367615,563.144775 463.298370,564.305603 
	C463.169861,566.461548 462.927826,568.611023 462.723022,570.762207 
	C462.145294,576.830139 462.045197,582.880066 462.638672,589.170959 
	C467.244751,588.616211 469.250366,585.409424 471.812347,583.272034 
	C479.482117,576.873352 486.874451,570.143127 494.431793,563.607971 
	C495.926880,562.315125 496.787903,560.901978 496.772919,558.902222 
	C496.521790,525.420654 497.765228,491.925812 495.867706,458.459473 
	C495.721985,455.889343 495.370056,454.405609 492.160309,452.815369 
	C488.046783,450.777374 484.347961,446.572601 482.746246,441.626434 
	C481.287598,437.122070 484.145538,434.092560 487.351990,431.322479 
	C483.712372,427.814880 482.667999,423.466766 481.816925,419.058807 
	C481.345795,416.618500 482.406982,414.893372 484.941742,415.169983 
	C489.813965,415.701660 493.870483,415.513123 492.907684,408.359375 
	C496.444580,409.995148 494.767731,414.422241 498.052216,414.772522 
	C500.683167,415.053101 503.363647,414.880157 506.022217,414.887451 
	C509.313507,414.896515 508.155640,411.638031 509.578522,409.932373 
	C512.144531,411.301941 512.221436,415.859192 516.554932,415.103424 
	C519.476929,414.593903 522.671814,415.387878 524.344238,411.156250 
	C526.386475,414.724701 529.195251,415.439240 532.257080,415.243073 
	C548.069153,414.229950 563.898071,414.995178 579.717102,414.758148 
	C582.886414,414.710663 585.364685,414.070862 587.569580,411.447510 
	C593.426270,404.479309 601.140503,402.688538 609.673096,405.058899 
	C617.240234,407.161041 622.403870,414.841614 623.285034,423.684174 
	C623.851746,429.371033 621.799744,434.508087 620.610840,439.838623 
	C620.216492,441.606415 618.826904,442.171173 617.212830,442.183807 
	C608.551514,442.251678 599.891968,442.503632 591.235046,441.782104 
	C587.676208,441.485413 586.303284,439.413574 585.934448,436.318756 
	C585.384827,431.705994 583.065613,429.937347 578.270996,429.977020 
	C552.776733,430.187958 527.280151,430.118042 501.784363,430.129822 
	C499.302948,430.130951 496.998779,430.277710 496.856049,433.705048 
	C498.563171,435.568451 500.871429,434.720154 502.902832,434.803345 
	C515.059570,435.301147 527.229309,435.724854 538.981995,439.312164 
	C555.066772,444.221680 561.882996,449.955322 564.323120,471.461945 
	C564.898621,476.534302 565.139099,481.644714 565.583618,487.382782 
	C570.953186,485.411407 575.758362,483.749084 580.480774,481.877808 
	C583.659363,480.618225 585.995972,481.170624 588.510010,483.660645 
	C596.772339,491.843811 608.726440,492.086121 617.616150,484.388123 
	C619.390686,482.851501 620.957275,482.394623 622.994141,483.490570 
	C627.100342,485.700012 631.282288,487.780151 635.293762,490.149445 
	C637.164429,491.254333 638.873596,492.926117 637.737061,495.492645 
	C636.598511,498.063873 634.410156,498.429047 631.857178,497.942535 
	C624.557129,496.551422 623.875977,497.133972 623.374634,504.658752 
	C623.153442,507.977692 622.757080,511.285248 622.551086,514.604797 
	C622.224182,519.872620 623.300354,524.412292 628.355774,527.412720 
	C631.849243,529.486206 632.495667,533.723877 632.567993,537.053284 
	C632.644958,540.595520 629.298096,539.346558 627.388794,538.219543 
	C621.512878,534.751038 620.315247,535.299805 620.332703,542.596436 
	C620.350586,550.081970 620.912048,557.564514 621.084961,565.051880 
	C621.201111,570.079834 620.362732,574.954224 618.627502,579.740051 
	C615.758606,587.653076 617.043579,590.439453 624.589294,593.952576 
	C624.891418,594.093262 625.194702,594.232605 625.489868,594.387085 
	C627.363281,595.367371 630.190063,595.988892 629.687317,598.616211 
	C629.127808,601.540222 626.120056,601.127869 623.856995,601.174622 
	C619.026489,601.274475 614.192566,601.207336 609.360046,601.208862 
	C597.196106,601.212708 585.032227,601.230103 572.868286,601.209167 
	C570.366943,601.204834 567.832153,601.147400 565.606567,599.776550 
	C564.373535,599.017029 563.709045,597.871399 564.173401,596.379150 
	C564.649231,594.850098 565.715698,594.654114 567.279663,594.681885 
	C572.202698,594.769348 576.051941,591.573608 580.282776,589.719727 
	C582.541565,588.729919 582.228699,585.478699 581.130310,583.350525 
	C575.449951,572.344360 577.481445,561.017944 579.373657,549.650879 
	C579.699707,547.692444 579.748779,545.669678 579.741821,543.677307 
	C579.719482,537.251343 577.511108,535.563293 571.470337,537.244629 
	C569.898254,537.682190 568.283142,538.523499 566.753540,536.533752 
	C566.926819,536.075684 566.972229,535.261475 567.387634,534.964050 
	C571.740051,531.848206 572.280396,529.088745 567.679993,525.336914 
	C564.535889,522.772766 565.636108,521.044434 571.615723,518.826721 
M253.774780,568.300842 
	C268.518463,556.636353 275.360107,541.283325 275.078918,522.615845 
	C274.986298,516.466919 274.183899,515.948914 268.297089,515.241943 
	C257.711700,513.970886 247.080795,513.600281 236.460297,512.908447 
	C210.485260,511.216370 184.592804,512.459473 158.704498,514.454712 
	C155.201706,514.724670 153.482483,516.421326 153.217102,520.167603 
	C152.139038,535.385925 156.086868,549.195251 166.434372,560.256775 
	C179.064957,573.758911 194.157104,582.424988 213.808990,578.498108 
	C214.712875,578.317505 215.822571,578.545349 216.690613,578.920410 
	C219.604370,580.179382 222.596252,579.823303 225.543701,579.418823 
	C235.591370,578.040222 244.883240,574.638855 253.774780,568.300842 
M380.894714,586.727295 
	C381.634064,589.796753 382.343475,592.873718 383.119873,595.933777 
	C384.235138,600.329346 383.079681,602.131042 378.642242,601.756165 
	C369.654663,600.996948 360.659302,601.078430 351.673462,601.239380 
	C346.949036,601.323975 344.787170,599.384827 343.755280,594.908691 
	C341.213593,583.883423 338.378174,572.925049 335.568085,561.963501 
	C335.076172,560.044556 334.977966,557.811584 333.155884,556.337097 
	C331.839050,557.703247 332.033630,559.098755 332.014404,560.382324 
	C331.857269,570.889832 332.170898,581.366211 334.470398,591.681030 
	C335.047180,594.268311 336.636505,597.050781 336.108826,599.367371 
	C335.260956,603.089844 331.210846,600.627991 328.772675,601.732239 
	C327.045959,602.514343 325.905579,603.386780 326.231659,605.419922 
	C326.598877,607.709595 328.320190,607.852539 330.030548,607.542358 
	C333.995728,606.823425 337.988922,606.823364 341.985321,606.824463 
	C361.147247,606.829895 380.309204,606.855469 399.471130,606.875183 
	C405.130096,606.880981 410.760468,606.933044 416.312897,605.356812 
	C424.524536,603.025696 432.705841,603.028809 440.781982,606.260315 
	C443.975220,607.537964 446.413239,606.443787 448.118774,603.044556 
	C447.191071,602.710083 446.602661,602.321472 446.006348,602.308838 
	C432.525879,602.024841 419.045319,601.698975 405.562988,601.573730 
	C400.407135,601.525818 395.248352,602.016968 390.087982,602.142944 
	C386.934326,602.219971 385.647308,600.653198 387.144348,597.712341 
	C392.537262,587.118408 393.195312,575.474304 393.466522,564.100525 
	C394.300171,529.135925 395.087067,494.135468 391.647797,459.236267 
	C391.341583,456.128571 392.181793,451.163361 388.433868,450.784088 
	C384.917389,450.428253 384.952393,455.406494 384.239532,458.261047 
	C380.313446,473.983337 378.769531,490.017578 377.963379,506.183929 
	C376.633820,532.847839 376.835602,559.428589 380.894714,586.727295 
M211.655731,487.883881 
	C228.039261,487.875458 244.217117,489.810211 260.271393,492.969330 
	C262.384216,493.385101 264.567535,493.825989 266.690491,493.716766 
	C269.822144,493.555695 271.249023,491.754822 269.983368,488.619934 
	C269.365784,487.090210 268.495361,485.639252 267.584167,484.254791 
	C250.386719,458.125854 211.799698,449.280762 184.499908,465.256287 
	C174.449646,471.137604 165.475784,478.197632 160.114914,488.937500 
	C159.357010,490.455872 158.626404,492.047241 160.026962,493.566772 
	C161.236206,494.878662 162.764755,494.486816 164.234985,494.079803 
	C179.437973,489.871155 195.114075,489.226166 211.655731,487.883881 
M828.354736,622.344299 
	C794.877502,622.357300 761.400208,622.365173 727.922974,622.398071 
	C726.159485,622.399841 724.199341,622.086975 723.128479,624.092041 
	C723.454712,625.989502 724.939453,626.895508 726.169067,627.967163 
	C745.988892,645.239319 768.714172,651.309692 794.438538,645.479675 
	C807.359741,642.551270 818.858582,636.758362 828.514526,627.599365 
	C829.898376,626.286804 833.023315,624.591736 828.354736,622.344299 
M417.076813,440.925995 
	C418.657806,440.715729 420.398987,441.374390 422.675049,439.358704 
	C416.365021,436.510712 413.261658,429.394165 405.567749,429.386993 
	C381.933136,429.364990 358.298462,429.382263 334.663910,429.433136 
	C331.842957,429.439209 328.573059,429.263763 328.458923,433.391022 
	C328.363831,436.831024 328.697113,440.211395 333.284607,440.762451 
	C336.002686,441.088898 338.025208,442.294952 338.216919,445.404266 
	C338.977142,457.734955 341.813416,469.719849 344.504639,481.709167 
	C345.431976,485.840332 345.697601,490.334076 348.606079,494.966064 
	C349.208435,493.270264 349.603271,492.682037 349.597870,492.097443 
	C349.462708,477.454224 350.320648,462.798401 349.197784,448.169525 
	C348.777435,442.693329 349.853516,441.196777 355.158020,440.651428 
	C366.514832,439.483795 377.797363,441.737579 389.354126,440.372803 
	C397.935699,439.359375 407.217957,440.620850 417.076813,440.925995 
M260.567932,429.404907 
	C236.429047,429.398773 212.290176,429.395996 188.151291,429.385010 
	C177.491974,429.380188 166.832657,429.355072 156.173340,429.348694 
	C154.502487,429.347687 152.648056,429.225555 151.768341,430.992828 
	C150.839493,432.858826 152.318069,434.126221 153.418442,435.323181 
	C154.768494,436.791748 156.334610,438.062042 157.679916,439.534485 
	C161.552887,443.773529 165.372757,444.403503 170.841293,441.541412 
	C185.327606,433.959595 201.158401,431.726685 217.327682,432.235901 
	C235.638077,432.812500 252.770905,437.742859 268.425903,447.416504 
	C270.728363,448.839325 272.631500,448.878326 274.650055,446.849701 
	C278.406891,443.074188 282.350067,439.484528 286.131836,435.733032 
	C287.371185,434.503662 289.000427,433.291565 287.995697,430.459473 
	C279.413269,428.569458 270.435516,429.701782 260.567932,429.404907 
M522.361694,521.467163 
	C523.623291,523.907654 525.633179,524.448792 528.218567,524.012329 
	C536.140381,522.674622 538.608398,520.490967 539.585449,512.346924 
	C541.376160,497.420349 541.596558,482.442169 539.688721,467.500519 
	C538.758789,460.217407 535.560608,457.072083 528.341797,455.450226 
	C525.092651,454.720276 523.327942,455.378967 523.194031,459.210419 
	C522.478210,479.689514 522.063965,500.170868 522.361694,521.467163 
M109.760910,427.212738 
	C107.739044,428.759644 106.203201,430.664795 105.275909,433.065002 
	C104.006851,436.349823 103.624527,439.587433 106.158676,442.430908 
	C108.619202,445.191864 111.723289,445.032440 114.884140,443.852081 
	C117.214050,442.982025 119.654640,442.268890 121.785667,441.035980 
	C125.723488,438.757812 128.884476,439.498413 132.124146,442.458923 
	C136.167709,446.154083 140.661194,449.362915 144.642441,453.118774 
	C149.304276,457.516785 151.784637,453.089722 154.620163,450.868988 
	C158.237076,448.036255 154.606033,446.267273 153.105988,444.518402 
	C147.323120,437.776428 139.344299,432.397095 142.497314,421.197540 
	C143.528336,417.535278 139.769928,414.502960 135.935913,413.556732 
	C130.836456,412.298157 126.063835,412.898682 122.360840,417.337189 
	C119.911865,420.272583 120.006859,422.968109 122.355171,425.832367 
	C123.107193,426.749603 123.582031,427.900604 122.805580,429.047729 
	C121.913956,430.365021 120.478912,430.384674 119.218079,429.943726 
	C117.836830,429.460663 116.440842,428.777283 115.318275,427.855896 
	C113.774712,426.588989 112.313675,425.789124 109.760910,427.212738 
M129.402664,603.207275 
	C124.445091,607.343323 119.524384,603.838562 114.682121,602.960876 
	C110.851212,602.266602 107.717064,602.713623 105.442078,606.009644 
	C103.835556,608.337097 104.138702,610.737244 105.783699,612.967896 
	C108.165024,616.196960 111.287827,616.169983 114.733269,615.058472 
	C116.429390,614.511292 118.405891,613.585022 119.843086,615.324585 
	C121.145454,616.901001 119.674492,618.463074 119.159172,619.973145 
	C117.652161,624.389221 119.032127,628.263000 122.814354,630.093994 
	C126.875702,632.059998 134.751205,630.644470 138.255112,627.241638 
	C142.162170,623.447327 141.607559,619.068665 139.264542,614.891357 
	C137.436279,611.631775 138.241440,609.229187 140.579361,606.884399 
	C143.396652,604.058838 146.229080,601.248291 149.068710,598.445190 
	C150.831238,596.705322 152.392471,595.072571 149.721771,592.716858 
	C147.357666,590.631531 145.306473,588.572510 142.142715,591.642883 
	C138.208603,595.460876 134.058121,599.055786 129.402664,603.207275 
M297.030914,431.563110 
	C296.077362,435.895721 292.736359,438.530518 289.956635,441.580627 
	C286.201294,445.701202 281.411377,448.878967 278.384888,453.598022 
	C280.242188,456.478149 282.101318,456.686920 284.397400,454.808960 
	C287.100281,452.598175 289.858307,450.450897 292.655670,448.360748 
	C295.475494,446.253815 299.088104,445.164215 299.101196,440.380280 
	C299.108307,437.786377 302.049530,437.648590 304.303802,438.059082 
	C307.915802,438.716736 311.539886,439.186279 315.214783,439.063324 
	C318.491364,438.953705 321.310394,437.927551 321.566406,434.152344 
	C321.796448,430.759888 319.529449,428.840088 316.471802,428.435730 
	C313.821045,428.085175 312.943817,426.912384 312.394257,424.423737 
	C310.631683,416.442352 301.492004,412.728363 294.548401,416.974579 
	C290.955780,419.171570 290.321411,422.448120 292.876160,425.779968 
	C294.184082,427.485718 295.545044,429.150818 297.030914,431.563110 
M856.754517,567.329590 
	C861.335022,565.091248 860.001099,561.393921 858.809631,558.011658 
	C855.874023,549.678223 853.150330,541.359192 853.742432,532.320007 
	C854.532837,520.252747 854.471191,520.248779 842.018677,520.940613 
	C841.852844,520.949768 841.686462,520.965637 841.520935,520.960388 
	C838.119934,520.852234 836.600098,522.462097 837.051941,525.861450 
	C839.141479,541.582703 844.966614,555.576233 856.754517,567.329590 
M304.845428,600.460754 
	C300.567932,602.143433 297.264343,601.234680 294.526398,597.302307 
	C292.842590,594.883972 290.410919,592.986572 288.315552,590.854675 
	C284.705200,587.181396 283.602753,587.404785 280.759888,592.537109 
	C283.651001,596.339600 287.246979,599.533447 290.961243,602.588501 
	C293.987274,605.077454 295.539673,607.810059 293.259338,611.622742 
	C291.261383,614.963318 293.001129,616.985779 295.914154,618.319641 
	C301.718262,620.977356 307.294373,619.817444 312.605347,616.858948 
	C316.062042,614.933289 319.088135,612.442627 318.515381,607.923462 
	C317.912354,603.165100 314.183289,601.537903 310.155792,600.562256 
	C308.736877,600.218506 307.186798,600.416016 304.845428,600.460754 
M214.561310,606.179016 
	C205.701920,604.386536 198.032379,607.133179 190.804520,612.064758 
	C197.055054,620.770996 226.495941,621.422058 237.121628,611.785156 
	C230.736343,606.341187 222.974854,606.779724 214.561310,606.179016 
M209.996933,505.459259 
	C213.540817,506.509033 217.135284,507.275970 220.775055,506.112732 
	C223.068024,505.379944 225.099808,504.250153 224.691605,501.213165 
	C224.301651,498.312073 222.854141,497.206085 219.794220,497.084656 
	C208.794724,496.648285 197.884079,497.810181 186.949524,498.531830 
	C185.611374,498.620148 183.906448,498.537811 183.049057,500.269318 
	C185.831787,503.441650 189.412888,504.178894 193.383865,504.129669 
	C198.673523,504.064087 204.031586,503.226501 209.996933,505.459259 
M290.457703,458.873535 
	C287.137756,460.791504 287.337402,462.995087 289.650818,465.701263 
	C292.130676,468.602020 294.237335,471.823120 296.735016,474.706818 
	C298.370331,476.594849 298.913544,479.562134 302.598450,480.653168 
	C302.598450,473.673584 302.942047,467.108826 302.512695,460.595001 
	C301.958923,452.193420 300.332855,451.627106 293.395020,456.647675 
	C292.587341,457.232086 291.804932,457.851440 290.457703,458.873535 
M225.296173,585.398438 
	C217.505463,585.860046 217.124588,586.260010 217.245300,593.901001 
	C217.261078,594.900146 217.288391,595.900269 217.350388,596.897339 
	C217.508331,599.437805 218.756119,601.048096 221.410141,600.944397 
	C224.250031,600.833435 227.708359,602.174133 229.495728,598.789795 
	C231.235458,595.495605 228.957184,587.362488 225.296173,585.398438 
M211.827271,597.876587 
	C211.908783,595.726868 211.914261,593.570984 212.088745,591.428833 
	C212.387375,587.762329 210.894226,586.191528 207.109589,585.685852 
	C201.649704,584.956360 200.529312,588.027710 200.064133,592.268250 
	C199.790176,594.765625 197.862152,597.856689 201.262711,599.270935 
	C204.589767,600.654602 208.393448,602.557007 211.827271,597.876587 
M292.191589,585.283386 
	C293.537750,586.506714 294.811066,587.825195 296.250885,588.926025 
	C297.641174,589.988953 299.354797,589.996094 299.989502,588.234009 
	C302.365875,581.636841 302.071869,574.937988 300.413483,568.021973 
	C296.666534,571.920715 293.713654,576.029114 290.865479,580.208862 
	C289.716644,581.894775 290.715515,583.361328 292.191589,585.283386 
M870.081116,596.940063 
	C866.080261,596.407593 866.446350,600.112610 865.265808,602.127136 
	C863.234619,605.593140 864.859558,606.835327 868.491638,606.811829 
	C872.229675,606.787598 875.457947,605.415955 876.153870,601.836548 
	C876.828003,598.368896 872.760742,598.539612 870.081116,596.940063 
M274.483948,605.822388 
	C276.558533,605.442505 280.067230,606.991638 280.097900,603.619812 
	C280.125854,600.549011 277.260071,598.431885 274.246368,597.587280 
	C272.322388,597.048157 266.808655,601.309998 267.135254,602.974060 
	C267.810791,606.415955 270.876526,605.399048 273.160431,605.773254 
	C273.323181,605.799927 273.492249,605.787964 274.483948,605.822388 
M753.888733,768.979370 
	C755.384949,773.102661 758.922363,775.680420 760.787048,773.825195 
	C762.667786,771.954102 763.434937,769.182007 763.168518,766.539795 
	C762.977600,764.646423 761.013672,764.046753 759.306458,764.124451 
	C756.603088,764.247620 753.881836,764.634155 753.888733,768.979370 
M186.471558,583.956726 
	C187.160248,590.088867 188.570709,591.770386 191.235718,589.621216 
	C192.571869,588.543762 194.611298,587.071716 193.301468,585.182800 
	C191.838455,583.072876 189.634338,581.278931 186.471558,583.956726 
M243.434402,587.193237 
	C243.828995,585.315613 244.866943,582.882202 242.709152,581.929321 
	C240.581146,580.989624 238.362076,582.182068 236.879761,584.134460 
	C239.289856,587.599121 239.289856,587.599121 243.434402,587.193237 
M159.471039,605.539978 
	C160.872467,605.279785 162.521271,605.488342 163.122131,603.675781 
	C158.584045,599.050354 157.258743,599.119568 155.220032,604.061096 
	C156.146408,605.194214 157.528870,605.215393 159.471039,605.539978 
M235.117798,592.709351 
	C233.995255,595.192505 233.466309,597.551758 237.194809,597.985596 
	C238.294205,598.113464 239.522247,597.217102 239.507721,595.906677 
	C239.481583,593.549561 238.005722,592.480774 235.117798,592.709351 
z"/>
<path fill="#E4D9FF" opacity="1.000000" stroke="none" 
	d="
M498.594879,125.259132 
	C521.608337,122.424942 543.460510,124.838066 564.624084,133.625900 
	C581.085327,140.461166 591.266113,153.014557 598.353455,168.671417 
	C599.556152,171.328369 600.519226,173.511505 604.162598,171.923370 
	C634.674377,158.623322 662.005737,178.009033 674.828918,196.837524 
	C690.655212,220.075577 687.882141,256.569916 668.911987,277.391449 
	C662.286926,284.663025 653.777710,289.099121 644.190063,290.458771 
	C640.142639,291.032776 635.675598,290.338745 631.393066,290.257935 
	C625.690186,290.150360 620.100037,291.099701 614.469910,291.600372 
	C610.116150,291.987549 607.184570,294.517303 606.137512,298.993134 
	C604.430969,306.288574 602.708740,313.582245 600.836853,320.836365 
	C600.038574,323.929749 599.946167,327.554962 595.692993,328.566193 
	C594.194763,328.922424 594.031250,330.636108 594.457642,331.971954 
	C598.758728,345.446899 594.765320,357.977966 589.973206,370.347748 
	C588.739563,373.532257 588.892456,375.683228 591.981384,377.431305 
	C593.420288,378.245605 594.736877,379.314392 595.997253,380.397736 
	C598.772644,382.783386 602.210632,385.123138 600.920410,389.426086 
	C599.413574,394.451233 595.508789,397.223175 590.494568,398.512756 
	C586.007874,399.666687 583.202026,397.305359 580.819946,394.004852 
	C580.332886,393.330048 579.839233,392.647858 579.454468,391.913574 
	C577.419434,388.029877 575.141235,387.874115 572.249146,391.156006 
	C568.224792,395.722717 563.270142,399.090790 557.694885,401.491241 
	C551.855347,404.005524 547.322632,402.641724 544.073914,397.218994 
	C541.951721,393.676636 540.303772,389.878174 540.123535,385.110504 
	C545.044678,384.441742 549.941101,385.164276 554.569702,383.712921 
	C556.947388,382.967346 559.451355,382.608124 561.802612,381.796936 
	C577.338318,376.437469 582.972290,368.737183 583.693542,352.233032 
	C584.067505,343.675507 584.109070,335.249115 579.335449,327.557922 
	C577.813843,325.106293 576.141479,323.597443 573.195312,323.128815 
	C544.305237,318.533142 515.299622,316.934418 486.078308,318.946655 
	C470.584137,320.013611 455.420837,323.145782 440.113739,325.391571 
	C436.237427,325.960327 433.843597,327.614441 432.771484,331.603455 
	C430.859772,338.716431 430.248016,345.677887 433.365051,352.596710 
	C433.570068,353.051697 433.783783,353.512329 433.909058,353.992340 
	C439.897125,376.940094 456.457825,385.501068 478.418945,386.737000 
	C478.723175,386.754120 479.014740,386.995636 479.310059,387.137146 
	C479.413666,395.286469 471.875153,401.349915 464.084442,399.434875 
	C458.394684,398.036255 453.861542,394.678101 449.553009,390.953705 
	C444.409332,386.507355 443.898834,386.196960 440.580780,391.799316 
	C435.948730,399.620239 426.493561,398.358551 421.210785,393.498383 
	C416.793213,389.434204 416.639954,384.988464 421.150726,381.135986 
	C422.894989,379.646210 424.930359,378.221039 427.078522,377.536377 
	C431.936462,375.987976 432.273712,373.244415 430.282257,369.144012 
	C428.100616,364.652161 426.264343,359.993927 424.205780,355.440643 
	C421.277527,348.963837 420.532898,342.336151 422.724304,335.503174 
	C423.682953,332.514160 423.772400,330.275909 419.648895,330.068359 
	C416.553772,329.912567 416.718414,327.357452 416.742004,325.197815 
	C416.820099,318.049500 416.958374,310.901642 417.112152,303.754456 
	C417.205627,299.409607 415.511536,298.737885 411.016296,298.732483 
	C391.081360,298.708466 371.099548,298.001740 355.674805,282.405487 
	C327.052917,253.465332 330.201538,210.910782 362.799896,186.002838 
	C379.000610,173.624100 397.513824,169.688187 417.451630,171.270187 
	C424.887695,171.860199 432.446106,171.853790 439.488586,175.019989 
	C442.344055,176.303772 443.331512,174.102554 444.058258,171.925735 
	C446.072357,165.893265 448.817596,160.210648 452.081451,154.760208 
	C462.549347,137.279449 478.883392,129.013229 498.594879,125.259132 
M610.528198,288.046539 
	C621.439819,275.332550 633.642822,263.504303 639.156677,246.849335 
	C619.091370,257.085144 600.551025,248.141891 580.944885,242.535950 
	C581.614868,258.596771 582.247559,273.764435 582.880249,288.932098 
	C583.491760,288.998138 584.103333,289.064178 584.714844,289.130219 
	C585.761475,286.578400 586.812988,284.028564 587.853638,281.474304 
	C589.369995,277.752380 591.056274,274.093414 594.319824,271.570435 
	C596.577148,269.825317 599.128479,268.303009 602.121399,269.800873 
	C604.882019,271.182526 606.239380,273.625458 606.312012,276.677795 
	C606.379272,279.500610 606.207214,282.328613 606.251160,285.152618 
	C606.277954,286.873199 605.342957,288.812500 607.095520,290.200928 
	C608.556152,290.386078 609.283508,289.432678 610.528198,288.046539 
M568.341858,227.945953 
	C569.009583,226.012939 571.005066,224.487274 570.251770,222.039413 
	C568.196228,221.623550 567.099609,223.087112 565.934143,224.113785 
	C561.136047,228.340805 555.686829,231.551712 549.822937,233.913422 
	C546.650696,235.191055 545.461487,237.245697 545.350891,240.308487 
	C545.002930,249.939041 544.634094,259.569641 544.415466,269.203491 
	C544.365723,271.398712 544.260193,273.838043 547.567871,276.257904 
	C553.493774,259.599854 559.272034,243.419632 568.341858,227.945953 
M432.448242,274.883301 
	C433.255493,276.037720 433.365295,277.829437 437.048248,278.199829 
	C434.104950,262.877594 434.289246,247.660202 432.369324,231.399582 
	C427.731140,235.618484 425.288513,239.708069 421.351746,242.256424 
	C418.578156,244.051865 418.610260,246.222412 420.054230,249.085892 
	C424.242920,257.392151 428.152740,265.839050 432.448242,274.883301 
M527.910950,230.588211 
	C537.066589,227.987411 545.788452,224.690308 552.220520,216.368179 
	C550.898499,215.973770 550.562134,215.751968 550.294800,215.816437 
	C549.491150,216.010269 548.688782,216.256638 547.931030,216.586319 
	C532.153931,223.450836 515.837158,225.815460 498.824738,222.568115 
	C497.191284,222.256302 495.422058,221.989655 494.760742,224.946198 
	C504.804565,230.727234 515.649353,232.174332 527.910950,230.588211 
M411.533417,269.015167 
	C411.072784,268.322784 410.675659,267.576141 410.139496,266.948273 
	C408.580292,265.122375 407.283752,261.825836 404.548065,262.967102 
	C401.597900,264.197876 403.279358,267.372589 403.825439,269.654541 
	C405.295746,275.798370 406.639954,281.948822 407.333008,288.242859 
	C407.777954,292.283752 410.938049,294.546631 414.006226,296.285217 
	C416.708130,297.816223 418.711792,296.113586 418.306366,293.071167 
	C417.230133,284.994659 415.807373,276.969696 411.533417,269.015167 
M469.534302,247.526093 
	C470.142334,248.865219 469.715698,250.741135 471.561737,251.791855 
	C473.673431,247.594437 472.727844,244.280090 469.265289,240.356644 
	C469.667114,243.170242 470.246857,245.079773 469.534302,247.526093 
z"/>
<path fill="#E4D9FF" opacity="1.000000" stroke="none" 
	d="
M764.883789,318.869690 
	C784.552246,301.130676 801.682190,281.202637 821.919556,263.692352 
	C824.086914,268.159424 821.700562,270.348175 820.349609,272.567749 
	C811.669800,286.828552 801.351379,299.925018 791.062317,313.022736 
	C777.368225,330.454987 762.978699,347.308167 747.455444,363.144684 
	C740.694458,370.042114 733.471802,376.484985 725.458252,381.960022 
	C715.993896,388.426331 705.841919,390.253387 695.132446,385.715790 
	C685.982849,381.839111 678.124329,382.658661 671.025574,390.088959 
	C664.700256,396.709717 657.948425,402.921906 651.436340,409.366486 
	C650.397827,410.394287 649.324097,411.517670 649.169861,413.275238 
	C650.679626,415.507629 653.057129,414.561371 655.039734,414.564575 
	C735.700623,414.694641 816.361633,414.767700 897.022583,414.849945 
	C898.855713,414.851807 900.689880,414.840149 902.521667,414.897034 
	C905.511047,414.989838 908.733093,414.617096 909.333496,418.917053 
	C910.022522,423.850800 908.382141,426.989105 904.159790,428.457550 
	C901.585449,429.352814 898.914490,429.320740 896.248413,429.322083 
	C845.918945,429.347473 795.589478,429.393372 745.260010,429.380676 
	C711.270935,429.372131 677.280518,429.420471 643.294189,429.087280 
	C637.560303,429.031067 632.726196,430.769928 626.909790,434.340271 
	C627.570068,421.387726 627.223450,409.804291 614.936829,403.402039 
	C617.082031,399.313324 620.475525,397.656067 623.255005,395.422852 
	C634.023132,386.771118 644.933350,378.295929 655.686829,369.626251 
	C661.699646,364.778564 663.717041,358.752411 659.867371,351.331146 
	C654.383667,340.759766 658.018250,332.542572 664.174255,324.189209 
	C674.810059,309.756897 688.968750,299.132721 702.834473,288.214355 
	C725.088989,270.690521 747.710083,253.643127 770.591064,236.945343 
	C774.352356,234.200455 778.397339,231.841583 782.336792,229.344727 
	C783.718323,228.469116 785.139893,227.555634 786.953735,228.145950 
	C788.286560,231.127594 786.034668,232.515762 784.460571,234.077347 
	C767.072815,251.326996 749.505981,268.399414 732.305359,285.833221 
	C722.717590,295.551086 712.974121,305.150238 704.177246,315.626312 
	C703.121887,316.883148 702.126282,318.190247 701.708862,320.305267 
	C703.338074,319.163269 705.037537,318.108765 706.585876,316.866028 
	C729.066650,298.823120 750.665771,279.743164 772.442078,260.870667 
	C781.129456,253.341721 789.911743,245.921936 798.684631,238.492371 
	C800.003540,237.375351 801.221863,235.659027 803.682129,236.909042 
	C803.696838,240.582336 800.827454,242.618912 798.768738,244.987167 
	C786.078186,259.585815 772.211731,273.065002 758.608948,286.789520 
	C743.948547,301.581238 729.117859,316.204041 714.382935,330.922119 
	C713.019836,332.283661 711.196472,333.454895 711.565491,336.050690 
	C713.993530,337.150146 715.186462,335.043732 716.555969,333.922882 
	C734.093323,319.569733 751.140198,304.648804 767.944519,289.445282 
	C781.779846,276.928040 795.694885,264.498779 809.614075,252.074753 
	C811.185669,250.671906 812.770020,249.071686 815.392944,249.174637 
	C816.676819,251.747070 814.701660,253.205109 813.366272,254.675827 
	C803.511536,265.529877 793.688660,276.415802 783.664429,287.112427 
	C766.119751,305.834015 748.435913,324.425140 730.819275,343.079346 
	C729.579224,344.392456 728.263672,345.682373 727.752136,348.714447 
	C741.906067,340.297363 753.138550,329.542328 764.883789,318.869690 
z"/>
<path fill="#E4D9FF" opacity="1.000000" stroke="none" 
	d="
M521.992004,682.022888 
	C521.567200,676.464661 517.020325,676.863831 513.335938,676.088989 
	C511.469910,675.696472 508.998077,676.595886 508.080444,674.211914 
	C507.342773,672.295410 506.024475,670.193542 507.597412,668.053772 
	C508.631042,666.647705 510.043274,665.557312 511.855835,666.064270 
	C514.267334,666.738892 515.995605,668.414307 516.183044,670.986328 
	C516.328491,672.983276 517.160461,674.039001 518.660217,675.404907 
	C523.427734,679.746765 526.916199,677.732117 529.896362,673.413574 
	C535.569092,678.640320 535.790344,683.915405 530.979431,688.912354 
	C529.378845,690.574829 530.199158,697.119385 532.217285,699.601257 
	C525.986633,713.095032 512.465759,712.741577 501.025238,715.043091 
	C488.869965,717.488403 476.458923,719.269348 463.918488,719.695801 
	C450.274750,720.159729 440.238037,714.790405 434.233643,702.761414 
	C428.886414,692.049011 416.128418,690.164124 407.859589,698.848572 
	C405.977112,700.825684 406.121643,703.054199 406.943787,705.364929 
	C411.170929,717.245544 420.648376,723.522644 431.690857,727.641724 
	C444.276611,732.336609 457.172882,731.898193 469.998169,728.266418 
	C477.685822,726.089539 485.490936,724.435852 493.275696,722.659424 
	C509.779816,718.893494 525.736511,721.856323 541.528320,726.259888 
	C558.006592,730.854858 574.482483,733.339294 591.128174,727.654907 
	C601.733582,724.033142 610.307190,717.667480 615.289978,707.262695 
	C618.731873,700.075378 617.513428,697.188782 610.068665,694.400452 
	C599.825073,690.563904 594.347168,692.462524 589.630493,702.048401 
	C582.976257,715.572021 567.856689,720.864197 553.805115,719.809875 
	C542.865112,718.989014 531.979614,717.436707 521.072021,716.191101 
	C519.473511,716.008545 517.684692,716.123230 516.589172,713.236877 
	C522.012146,712.461060 527.147644,712.664185 532.320923,713.208069 
	C543.581665,714.391907 554.824097,715.778992 565.981445,712.192017 
	C573.882446,709.651978 580.354980,705.471741 584.763794,698.234009 
	C587.716370,693.386841 591.092712,688.864136 596.495789,686.309875 
	C601.706238,683.846497 607.013367,683.605652 613.061951,685.710876 
	C606.170410,677.807251 591.006287,675.529114 582.344116,680.527405 
	C584.994812,689.387390 580.542419,696.383545 573.070007,700.165955 
	C566.600220,703.440857 559.595764,702.070374 555.361938,696.990112 
	C550.360229,690.988464 550.046448,681.716064 554.638672,675.621216 
	C557.839905,671.372559 560.713257,670.222717 564.624695,671.788940 
	C563.756531,674.312683 561.200134,675.289856 559.693848,677.181519 
	C555.601440,682.320984 555.515930,688.064758 559.600464,692.068359 
	C563.229370,695.625366 568.590149,695.744568 572.702026,692.249512 
	C574.501831,690.719788 576.647339,688.671326 575.208984,686.349365 
	C573.508545,683.604431 571.467285,686.209106 569.708069,687.116577 
	C568.364441,687.809570 567.042664,688.849487 565.646667,687.484070 
	C564.317993,686.184387 565.018066,684.703186 565.685791,683.333435 
	C566.741333,681.168335 568.510742,679.650879 570.420715,678.286377 
	C587.524658,666.066284 612.145020,671.478760 622.343567,689.794861 
	C623.558228,691.976257 625.353333,693.247620 627.240173,694.615417 
	C635.493286,700.598511 643.700867,706.710205 648.264465,716.210876 
	C652.204346,724.412842 651.203674,729.726562 644.695129,736.540283 
	C649.284302,742.893677 655.794922,746.048584 663.247681,747.669312 
	C665.193848,748.092529 667.213562,748.166016 669.180115,748.510864 
	C670.587708,748.757751 672.459717,748.558533 672.747559,750.533325 
	C672.980835,752.133667 671.858276,753.317627 670.798584,754.413025 
	C666.390015,758.970337 661.462402,757.699890 656.654602,755.585144 
	C655.238464,756.325012 655.535645,757.747070 654.910095,758.696289 
	C653.419861,760.957764 651.153809,761.214050 648.743103,761.166565 
	C646.462158,761.121704 645.561401,759.541504 645.038635,757.710144 
	C643.771240,753.270020 641.587646,753.553040 638.576172,756.175049 
	C633.801453,760.332214 628.154907,761.052917 622.772339,758.205261 
	C620.237915,756.864319 618.232849,758.888916 615.889954,757.542664 
	C609.592651,753.924316 606.526978,744.195618 610.072632,737.838562 
	C612.344238,733.765747 617.131042,731.905151 621.671326,733.330383 
	C626.229187,734.761047 630.208374,740.176941 629.850037,744.208984 
	C629.655029,746.404663 627.785950,747.043945 626.265320,748.501648 
	C628.303528,750.255310 630.259949,749.740906 632.222229,748.804749 
	C638.464111,745.826904 640.841003,737.103577 636.962097,731.479126 
	C635.545105,729.424500 634.294434,727.232422 632.700745,725.326416 
	C626.189575,717.539185 618.310303,717.307129 611.413818,724.707764 
	C605.841187,730.687744 600.014832,736.449402 593.470825,741.292908 
	C569.730408,758.864380 544.034424,764.478882 516.003540,752.603882 
	C511.482635,750.688660 507.882385,750.852905 503.312103,752.682251 
	C475.006104,764.012024 449.497162,757.767212 426.424225,739.159607 
	C421.135498,734.894409 416.142242,730.061829 411.849396,724.807068 
	C404.191254,715.432861 395.551849,718.916626 389.785248,725.330017 
	C387.689423,727.660889 386.025116,730.430603 384.444244,733.162292 
	C381.885437,737.583923 385.961090,740.549805 387.244019,744.076721 
	C388.672394,748.003601 391.661835,749.766907 396.447113,748.631958 
	C393.239594,743.941223 393.106537,739.309998 397.484161,735.490723 
	C400.539124,732.825317 404.190094,731.914917 408.192078,733.625305 
	C412.562042,735.493042 414.361938,739.203613 414.806732,743.498596 
	C415.593475,751.095764 410.288818,757.039917 402.687897,757.678528 
	C401.391632,757.787476 400.156189,758.490356 398.863708,758.796631 
	C393.570740,760.050964 388.622589,759.604736 384.338837,755.814941 
	C383.257233,754.858093 382.343719,753.480286 380.394775,753.769470 
	C377.773987,755.583801 380.291412,761.116638 374.897675,761.369690 
	C370.478424,761.577087 368.730835,758.881775 367.250244,755.718201 
	C354.064178,757.265137 352.196838,756.610779 350.088837,749.704773 
	C352.008636,747.730408 354.623993,748.081360 357.024231,747.838623 
	C363.846741,747.148682 369.834930,744.361816 375.420197,740.595520 
	C377.374298,739.277771 378.776642,737.530212 376.663147,735.250732 
	C369.984161,728.047241 372.355957,720.808716 376.746979,713.777588 
	C380.409729,707.912598 385.485962,703.288086 391.203827,699.441833 
	C396.701660,695.743652 401.407959,691.825928 405.101654,685.776733 
	C413.079590,672.711243 430.313995,668.604675 446.014099,674.549805 
	C450.556732,676.269897 454.937439,678.354004 458.288055,682.000061 
	C459.626587,683.456665 461.091644,685.397278 459.596985,687.348145 
	C457.923187,689.532715 456.059174,688.056824 454.404938,686.842224 
	C453.051208,685.848145 451.512421,684.552795 450.007904,686.203491 
	C448.312927,688.063110 449.394226,689.965271 450.746490,691.558777 
	C453.628296,694.954773 459.107788,695.688660 463.086609,693.289856 
	C467.079437,690.882446 468.086548,686.105469 465.929321,680.900696 
	C464.509827,677.475830 461.118408,675.483826 459.438690,671.859619 
	C462.469391,669.740295 464.699524,671.448792 466.682495,673.027405 
	C472.400757,677.579346 473.725555,686.397461 469.941010,693.551025 
	C466.219696,700.585022 459.306885,703.372620 451.786957,700.871704 
	C444.224915,698.356689 439.740967,691.666870 440.876404,683.952698 
	C441.270142,681.277771 441.416565,679.251343 438.265442,678.714844 
	C428.894012,677.119080 419.980438,677.876953 412.250214,684.154846 
	C411.362061,684.876160 410.443207,685.649902 410.343201,687.355713 
	C411.064362,687.184753 411.650635,687.044373 412.237579,686.906799 
	C425.826874,683.722473 430.776489,685.846863 437.995880,698.134338 
	C443.129303,706.871460 450.657745,711.989136 460.620300,713.778687 
	C466.929871,714.912048 473.165558,714.853271 479.496094,713.945007 
	C487.346466,712.818604 495.239319,711.932007 504.143921,712.823792 
	C492.897369,706.724243 492.433014,706.230225 493.092163,701.511230 
	C492.172211,700.560669 490.375427,701.712585 489.620972,699.963806 
	C489.749573,699.668152 489.815552,699.055786 490.139801,698.849731 
	C491.662567,697.881470 493.269043,697.245544 492.941437,694.788513 
	C492.190308,689.154968 496.014679,686.787292 500.451721,685.076599 
	C504.951294,683.341614 506.572906,687.131836 508.862061,689.602295 
	C509.419678,690.204102 509.981476,690.801941 510.446167,691.299622 
	C512.662170,691.502869 513.556152,689.905396 514.666992,688.750732 
	C516.857666,686.473633 518.174194,682.753662 522.515137,684.225586 
	C522.418335,683.627319 522.321533,683.029114 522.117371,682.213501 
	C522.010071,681.996094 521.992004,682.022888 521.992004,682.022888 
M566.734192,746.612061 
	C569.941345,746.175415 573.091553,745.595154 575.111450,743.925781 
	C532.369568,733.132263 489.272858,732.289368 445.660797,744.101196 
	C450.478302,745.660583 454.466675,747.880737 459.315186,744.215088 
	C462.267883,741.982788 466.010101,740.231873 469.981903,741.421448 
	C470.624359,744.820374 466.344910,744.991516 467.209259,748.519653 
	C477.186859,750.614380 487.178528,749.935303 497.141296,747.343750 
	C493.587646,743.528442 488.360779,745.236023 484.173340,742.762085 
	C485.966675,740.879333 487.645172,740.930969 489.295135,740.819885 
	C494.206329,740.489380 498.983154,741.260559 503.499756,743.079041 
	C507.104004,744.530273 510.367615,744.777710 514.021973,743.073425 
	C519.074890,740.716919 524.666992,740.461975 530.144531,740.098877 
	C532.270630,739.957886 534.707153,739.915955 536.145691,742.780701 
	C530.611023,744.088257 525.080566,744.017273 520.331543,747.151489 
	C531.821594,750.828125 543.297791,750.217407 555.315308,748.460205 
	C553.777222,744.993286 549.628601,745.474976 549.704712,741.992981 
	C554.196777,740.920776 557.263672,741.790161 566.734192,746.612061 
M521.896851,727.565979 
	C508.705048,724.924072 495.871490,727.088379 483.100769,730.691284 
	C506.433472,726.631165 529.402283,729.023621 552.247009,734.329041 
	C542.582764,731.172485 532.631775,729.609924 521.896851,727.565979 
M633.183777,714.004272 
	C634.590576,714.560730 635.473083,716.451355 637.830261,715.783691 
	C636.325439,710.207825 632.616638,706.768188 628.196899,703.993958 
	C625.922913,702.566650 624.137695,703.121582 623.218567,705.922852 
	C622.385315,708.462463 622.081116,710.341797 625.577698,711.032288 
	C627.984131,711.507568 630.239990,712.745239 633.183777,714.004272 
M399.499329,710.267700 
	C401.420593,708.602234 400.256531,706.939392 399.369446,705.406067 
	C398.704376,704.256409 397.397827,704.016907 396.304962,704.617981 
	C391.564453,707.225281 387.712311,710.655823 385.159149,717.151733 
	C390.396606,714.088196 394.117798,711.205750 399.499329,710.267700 
M504.530731,695.781555 
	C504.825653,698.425049 505.018250,697.897766 507.446625,698.784851 
	C513.976318,701.169983 519.600708,695.458862 525.963867,697.359619 
	C519.095764,694.827881 512.033569,695.566956 504.530731,695.781555 
M470.086273,734.168396 
	C472.241974,733.549805 474.397705,732.931152 476.553436,732.312500 
	C473.284668,732.795044 469.612915,731.789978 465.997070,734.869507 
	C467.838074,734.595520 468.639954,734.476135 470.086273,734.168396 
z"/>
<path fill="#E4D9FF" opacity="1.000000" stroke="none" 
	d="
M770.852844,556.933594 
	C770.992310,550.288757 771.177734,544.131775 771.222351,537.973694 
	C771.243469,535.055664 772.456848,533.737854 775.436768,533.775513 
	C782.267700,533.861816 789.100891,533.848267 795.932373,533.786255 
	C798.902710,533.759277 800.243958,535.155762 800.130493,538.038513 
	C799.507568,553.864075 798.710083,569.667969 793.033752,584.721985 
	C788.892090,595.705994 781.086731,601.844482 769.330200,603.472168 
	C761.120117,604.608887 753.032227,604.348389 744.960083,603.035339 
	C737.032227,601.745667 731.353516,597.269348 727.742126,590.009216 
	C722.304138,579.076721 719.921265,567.324097 718.877319,555.364319 
	C716.553589,528.741699 717.013062,502.127747 720.739929,475.630981 
	C721.409729,470.869202 722.555420,466.151886 723.792419,461.496704 
	C727.008240,449.394531 735.097168,442.688843 747.325806,440.675720 
	C756.943420,439.092438 766.570190,438.937500 776.147766,440.731079 
	C786.801697,442.726196 793.681213,449.093872 796.736877,459.498840 
	C800.304626,471.647980 800.413147,484.138214 800.291443,496.647644 
	C800.267700,499.081360 799.212402,500.353577 796.677917,500.350708 
	C789.512817,500.342499 782.347046,500.337006 775.182861,500.430206 
	C772.017883,500.471375 771.855591,498.442017 771.773254,496.111328 
	C771.503296,488.464417 772.388611,480.778687 771.044495,473.168671 
	C769.696350,465.536377 767.132935,463.125122 760.483337,463.176117 
	C753.662781,463.228424 750.585083,466.047333 749.349609,473.449249 
	C747.642029,483.679443 747.833618,494.059631 747.547302,504.349457 
	C746.995911,524.161499 746.587952,543.997559 747.249451,563.827026 
	C747.327576,566.167969 747.474426,568.466736 748.226624,570.717529 
	C750.199402,576.620728 752.686829,578.110779 760.210510,577.766968 
	C765.558899,577.522583 768.270996,575.256897 769.559387,569.807251 
	C770.520752,565.740845 770.930725,561.603271 770.852844,556.933594 
z"/>
<path fill="#E4D9FF" opacity="1.000000" stroke="none" 
	d="
M667.533325,440.328247 
	C681.476440,440.022034 694.964172,439.774078 708.452209,439.542786 
	C710.959534,439.499786 712.580811,440.628632 711.490723,443.207214 
	C706.812683,454.272797 709.117554,465.471008 710.575623,476.666626 
	C710.743469,477.955536 711.401489,479.244751 710.266418,480.555603 
	C707.685181,480.846161 707.215088,478.520569 706.185059,476.997742 
	C702.921814,472.173218 699.965149,467.121155 695.007996,463.708099 
	C682.127747,454.839996 669.703003,459.398560 666.121338,474.592987 
	C663.878113,484.109406 663.996704,493.748108 666.492065,503.250061 
	C667.032288,505.307281 667.935547,507.380219 669.129822,509.133881 
	C672.756592,514.459351 678.204041,514.734558 682.549011,509.974823 
	C685.185303,507.086884 686.674866,503.552612 688.027649,499.954956 
	C688.941528,497.524658 690.004028,495.007294 693.189453,495.614471 
	C696.296265,496.206726 695.290527,499.016846 695.292786,500.983948 
	C695.305481,512.144653 695.195251,523.305664 695.084839,534.466187 
	C695.061890,536.786011 695.250732,539.364197 692.123840,540.008240 
	C688.818726,540.689026 687.760132,538.397644 686.937683,535.879883 
	C686.782532,535.404846 686.662598,534.914429 686.464172,534.458130 
	C684.500793,529.943054 682.440002,525.387573 676.585815,525.166748 
	C672.626160,525.017395 668.101135,529.369385 666.990540,535.390930 
	C664.736084,547.614258 664.621399,559.961243 668.422974,571.927185 
	C671.169861,580.573486 677.148376,583.580322 685.966736,581.606140 
	C694.393005,579.719666 700.649536,574.851135 705.125854,567.512024 
	C706.548401,565.179626 707.451355,562.345581 710.074219,561.030640 
	C712.538757,561.824158 712.164612,563.639526 712.007507,565.231995 
	C710.931274,576.142212 709.072510,587.021179 711.255676,598.018127 
	C711.827637,600.899170 709.800354,601.294922 707.575806,601.315735 
	C695.752441,601.426453 683.917725,601.923889 672.109497,601.558350 
	C662.264160,601.253723 652.475098,601.663330 642.660706,602.034973 
	C636.749634,602.258728 635.956299,601.243042 637.757202,595.784546 
	C641.729004,583.745972 642.252563,571.199341 642.527954,558.779358 
	C643.255371,525.974426 642.973938,493.158051 641.652283,460.361084 
	C641.645569,460.194641 641.684143,460.014984 641.634583,459.863373 
	C640.660828,456.882019 642.528381,451.991760 637.413147,451.706757 
	C632.227173,451.417816 627.884521,457.083710 628.661987,462.248932 
	C629.381714,467.029541 629.951904,471.802551 629.373657,476.644653 
	C629.130310,478.682587 628.991089,481.026337 626.208740,480.766357 
	C623.730896,480.534790 621.131897,479.843109 620.918884,476.541931 
	C620.811646,474.880951 620.833374,473.212128 620.765991,471.548096 
	C620.352051,461.313232 612.272766,454.328491 601.994873,455.658600 
	C595.017395,456.561615 588.450073,458.537750 585.967834,466.300842 
	C585.231812,468.602905 584.105774,471.344482 587.612061,472.547028 
	C591.835693,473.995575 596.270935,472.436188 596.749878,469.213867 
	C597.294678,465.548370 599.444458,464.663177 602.694397,464.706818 
	C606.109619,464.752747 607.615417,466.426147 607.347168,469.697296 
	C607.060486,473.193359 609.268494,473.672852 611.976257,474.173737 
	C614.036682,474.554840 616.794861,473.743774 617.963074,476.511292 
	C616.882568,478.962006 614.807739,478.286346 613.127258,478.169891 
	C607.315979,477.767334 601.520996,477.134674 595.712402,476.685028 
	C591.490845,476.358276 587.441528,475.652557 583.093872,477.488586 
	C577.795715,479.726074 574.664856,476.611145 575.557068,470.891846 
	C575.890625,468.754089 576.375916,466.633789 576.594360,464.485413 
	C577.635864,454.245392 577.093567,452.815735 569.052124,450.400421 
	C567.098145,449.813568 565.778198,448.528687 566.028687,446.391357 
	C566.351013,443.639801 568.674072,443.651764 570.633301,443.717072 
	C577.953369,443.961121 585.266541,444.591370 592.585632,444.648010 
	C612.074158,444.798889 631.564453,444.730164 651.054016,444.740051 
	C653.863831,444.741486 656.372253,444.772003 658.529968,441.982788 
	C660.502319,439.433167 664.214355,441.075989 667.533325,440.328247 
z"/>
<path fill="#E4D9FF" opacity="1.000000" stroke="none" 
	d="
M502.662354,357.493591 
	C501.237213,360.465973 499.409180,362.571106 496.741302,363.828735 
	C487.254913,368.300690 477.605591,372.284088 467.166595,374.029236 
	C461.465088,374.982391 457.251465,373.188660 453.952515,368.312469 
	C446.417694,357.174957 444.919922,344.961243 447.008942,332.071259 
	C447.774170,327.349487 449.989136,325.952972 454.913147,327.248596 
	C471.170197,331.526154 487.013885,336.941376 502.142609,344.407288 
	C506.315796,346.466705 507.011688,348.859772 504.976471,352.663422 
	C504.194183,354.125519 503.556885,355.665131 502.662354,357.493591 
z"/>
<path fill="#E4D9FF" opacity="1.000000" stroke="none" 
	d="
M558.749756,330.563171 
	C571.205017,327.592072 573.748840,329.602875 573.195862,342.099976 
	C572.711914,353.038574 568.791809,362.788635 562.463196,371.690094 
	C559.797241,375.439789 556.232422,375.855225 552.302429,375.173950 
	C543.031738,373.566895 534.375244,370.079529 526.243958,365.502350 
	C519.834412,361.894318 518.150452,354.759308 515.476746,348.590057 
	C514.219299,345.688477 517.577881,345.272675 519.347839,344.484894 
	C531.983276,338.860931 545.057922,334.449463 558.749756,330.563171 
z"/>
<path fill="#E4D9FF" opacity="1.000000" stroke="none" 
	d="
M517.437378,368.604004 
	C522.651855,376.763031 527.507263,384.707092 530.333435,393.675964 
	C531.947815,398.799072 531.183105,400.024658 525.867004,401.378906 
	C521.129150,402.585876 516.395203,403.519958 511.909424,400.587372 
	C510.236725,399.493805 509.164246,400.444183 507.977203,401.454712 
	C503.264893,405.466095 497.960815,404.238892 492.804565,402.842163 
	C490.180298,402.131317 489.402496,399.983246 490.175598,397.266998 
	C493.312500,386.246155 498.724518,376.339508 505.504333,367.242218 
	C509.139496,362.364502 512.599609,362.951477 517.437378,368.604004 
z"/>
<path fill="#FFFFFF" opacity="1.000000" stroke="none" 
	d="
M656.251587,811.004944 
	C656.261292,818.503296 656.294617,825.502625 656.264282,832.501587 
	C656.255005,834.639282 656.548889,837.018372 653.327759,837.300110 
	C650.462585,837.550659 648.160522,837.261230 646.995483,833.968689 
	C645.193909,828.877258 644.255554,823.450989 641.282410,818.006958 
	C639.526550,823.069336 640.521851,827.583496 640.235718,831.991699 
	C640.077942,834.422119 640.711121,837.290039 636.788635,837.319275 
	C633.093079,837.346985 632.996338,834.736389 632.984497,832.164368 
	C632.936340,821.666138 632.939758,811.167603 632.945923,800.669189 
	C632.947388,798.141357 632.770996,795.513062 636.343750,795.057983 
	C639.922546,794.602234 642.001282,796.055664 642.969421,799.530945 
	C644.291748,804.277466 645.330139,809.143555 648.134888,814.615601 
	C649.530457,809.169800 648.859741,804.728943 649.103882,800.369690 
	C649.239014,797.958252 649.183899,795.562378 652.687378,795.649597 
	C656.101013,795.734619 656.179565,798.067810 656.199341,800.506958 
	C656.226440,803.839844 656.234619,807.172791 656.251587,811.004944 
z"/>
<path fill="#FFFFFF" opacity="1.000000" stroke="none" 
	d="
M553.660645,815.000610 
	C553.661316,808.379578 553.661316,802.258179 553.661316,795.795410 
	C558.937439,795.172241 563.750244,795.199097 568.403564,796.216003 
	C572.888062,797.195923 574.594971,800.967773 575.187622,805.147705 
	C575.683594,808.645996 575.928284,812.615417 573.904419,815.354187 
	C570.045166,820.576660 571.874512,825.313477 573.646729,830.349609 
	C574.348022,832.342468 575.612610,834.249390 575.011353,836.744202 
	C570.543823,838.499756 568.032776,837.045471 566.742554,832.315369 
	C565.864197,829.095337 565.652222,825.430481 562.697998,822.789734 
	C560.358521,824.416382 560.789062,826.648438 560.777527,828.710388 
	C560.767334,830.534973 560.959290,832.368591 560.834595,834.182617 
	C560.671753,836.551025 559.360046,837.743042 556.867310,837.561646 
	C554.565613,837.394226 553.704041,836.122681 553.705383,833.959473 
	C553.709045,827.806458 553.677612,821.653381 553.660645,815.000610 
M560.486023,807.572876 
	C560.616089,808.717896 560.733154,809.864563 560.879211,811.007568 
	C561.115662,812.857422 561.326660,814.776550 563.900635,814.655518 
	C566.292236,814.542969 567.379150,813.002380 567.707092,810.840393 
	C567.878967,809.707581 567.890320,808.541626 567.878601,807.391602 
	C567.853394,804.902710 567.243164,802.671326 564.339355,802.269531 
	C560.861511,801.788452 560.959961,804.568298 560.486023,807.572876 
z"/>
<path fill="#FFFFFF" opacity="1.000000" stroke="none" 
	d="
M328.620850,809.187500 
	C328.612885,807.885986 328.352844,806.951172 328.642639,806.240723 
	C330.108917,802.645996 324.743561,795.781494 332.922882,795.534119 
	C346.259918,795.130737 350.579315,798.638489 350.252991,808.147644 
	C350.160217,810.849976 349.972198,813.908630 348.233734,815.730225 
	C344.461334,819.682983 345.803802,823.500061 347.325348,827.623535 
	C348.353241,830.409302 349.161377,833.276123 350.123047,836.279114 
	C346.200470,838.512390 343.701111,837.806519 342.277222,833.676147 
	C340.941467,829.801453 339.503754,825.961853 337.751678,821.112610 
	C334.603882,825.613342 335.461792,829.771606 335.390778,833.664062 
	C335.321106,837.483948 333.481018,838.310913 330.249817,837.287231 
	C328.109375,836.609192 328.509125,834.706970 328.511780,833.099609 
	C328.524628,825.285583 328.581238,817.471619 328.620850,809.187500 
M336.277954,812.883240 
	C337.452576,815.140869 339.166412,814.942261 340.747772,813.575256 
	C343.701904,811.021790 343.227234,807.652527 342.350494,804.411743 
	C341.852112,802.569641 340.210907,802.054321 338.387543,802.212646 
	C336.778046,802.352478 336.216827,803.466614 335.861938,804.834167 
	C335.221252,807.303040 335.392487,809.739563 336.277954,812.883240 
z"/>
<path fill="#FFFFFF" opacity="1.000000" stroke="none" 
	d="
M527.980652,806.049927 
	C528.023987,803.397644 528.038391,801.234863 528.116943,799.074402 
	C528.207703,796.579895 529.572937,795.629761 532.019165,795.684143 
	C534.359192,795.736206 535.299683,796.841980 535.294067,799.067017 
	C535.268677,809.214355 535.480042,819.368347 535.164307,829.506226 
	C534.996643,834.888611 530.732849,838.150330 524.921204,838.279053 
	C518.488037,838.421692 514.357788,835.598816 513.680603,830.093445 
	C512.417603,819.825256 513.091492,809.496277 513.108704,799.190125 
	C513.113464,796.324829 514.775085,795.615540 517.352783,795.670715 
	C520.465271,795.737366 520.655334,797.520081 520.599243,799.994934 
	C520.422302,807.809753 520.420654,815.628540 520.373962,823.445984 
	C520.366028,824.773865 520.301758,826.136536 520.562073,827.422729 
	C520.972900,829.452637 521.831482,831.451721 524.281738,831.452820 
	C527.070862,831.454041 527.880127,829.338440 527.909668,827.000244 
	C527.995911,820.181152 527.965027,813.360535 527.980652,806.049927 
z"/>
<path fill="#FFFFFF" opacity="1.000000" stroke="none" 
	d="
M479.603180,800.749512 
	C479.800140,796.699524 481.844086,795.699890 485.248688,795.615967 
	C488.853607,795.527100 490.356049,797.182190 490.962311,800.398743 
	C493.020081,811.316772 495.171570,822.217346 497.178833,833.144470 
	C497.519623,834.999878 498.120544,837.336426 495.083099,837.806946 
	C492.354858,838.229553 490.345917,837.181641 489.978912,834.391357 
	C489.560577,831.211182 488.038208,829.661194 484.855865,829.463379 
	C481.111053,829.230591 481.145294,832.209839 480.612762,834.481506 
	C479.914185,837.461548 478.051422,838.138306 475.428467,837.662781 
	C472.382111,837.110535 473.204590,834.918884 473.568817,832.975952 
	C475.556244,822.374390 477.554352,811.774780 479.603180,800.749512 
M487.273743,818.110107 
	C486.485229,816.569885 487.251892,814.428040 485.360413,813.210449 
	C483.163483,814.531982 483.371460,816.793274 483.224854,818.825623 
	C483.113525,820.369141 481.451813,822.759705 484.497955,823.094910 
	C487.572021,823.433289 487.813904,821.180237 487.273743,818.110107 
z"/>
<path fill="#FFFFFF" opacity="1.000000" stroke="none" 
	d="
M591.867798,835.631958 
	C593.863831,823.300354 595.913879,811.377319 597.989441,799.458801 
	C598.519165,796.416870 600.501526,795.549133 603.406677,795.661072 
	C606.083740,795.764099 608.456299,796.001343 609.042114,799.218445 
	C611.178772,810.951538 613.310608,822.685425 615.405579,834.425964 
	C615.542114,835.190979 615.353088,836.014038 615.310242,836.920654 
	C611.755798,837.926270 608.741760,838.131531 608.038635,833.640869 
	C607.605103,830.872620 606.195740,829.497498 603.436768,829.466431 
	C600.716553,829.435730 599.905396,831.247375 599.203125,833.503052 
	C597.677429,838.403442 596.053955,838.898987 591.867798,835.631958 
M603.003723,812.734070 
	C601.776672,815.134583 601.268005,817.705017 601.284424,820.377319 
	C601.292419,821.674377 601.876160,822.637085 603.298889,822.737061 
	C604.991821,822.855896 605.749878,821.854004 605.712708,820.310791 
	C605.646118,817.543030 605.591187,814.739563 603.003723,812.734070 
z"/>
<path fill="#FFFFFF" opacity="1.000000" stroke="none" 
	d="
M409.790771,829.852112 
	C411.453461,831.693420 413.136230,832.212219 414.818878,830.699646 
	C416.694244,829.013794 416.623962,826.830383 415.605316,824.735168 
	C414.008240,821.450256 410.838318,819.715027 408.154236,817.510437 
	C403.274841,813.502747 400.709839,808.576904 402.345886,802.151184 
	C403.587006,797.276367 407.121582,794.759155 412.287994,794.815552 
	C417.356293,794.870789 422.047119,798.436340 422.955597,803.004211 
	C423.326874,804.871155 423.527527,806.812744 420.929871,807.263611 
	C418.974701,807.602905 416.818481,808.193665 415.999329,805.440430 
	C415.234528,802.869873 414.174713,800.077454 410.968414,802.090393 
	C407.975616,803.969360 408.651703,807.152649 410.556946,809.533203 
	C412.191315,811.575317 414.420105,813.157654 416.457275,814.858032 
	C419.974091,817.793518 422.983704,820.950928 423.593964,825.845337 
	C424.407471,832.369812 420.825897,837.171204 414.161835,838.108826 
	C407.649170,839.025085 402.642944,835.196777 401.922089,828.674377 
	C401.662140,826.322144 401.364899,823.779175 404.615692,823.178345 
	C408.085938,822.537048 408.889587,824.820251 409.181030,827.583740 
	C409.250275,828.240662 409.452484,828.883545 409.790771,829.852112 
z"/>
<path fill="#FFFFFF" opacity="1.000000" stroke="none" 
	d="
M374.445099,810.297974 
	C375.968658,814.811951 379.904236,812.969727 382.804352,814.120056 
	C384.033875,817.467712 383.283356,819.364502 379.224854,819.458191 
	C373.722992,819.585388 374.366608,823.646729 374.302216,827.354309 
	C374.229156,831.563049 376.999390,831.676270 379.996368,831.679321 
	C381.157684,831.680542 382.322906,831.707458 383.479279,831.805969 
	C385.292267,831.960449 386.105988,833.012573 386.010162,834.811768 
	C385.924347,836.422852 385.014313,837.230652 383.473358,837.295898 
	C379.161987,837.478271 374.849579,837.658997 370.535675,837.751282 
	C367.959076,837.806458 367.057312,836.131592 367.054565,833.862427 
	C367.040680,822.402283 367.058502,810.942078 367.082001,799.481934 
	C367.087433,796.824707 368.400848,795.591553 371.120209,795.667480 
	C374.771698,795.769531 378.427887,795.704773 382.082062,795.711304 
	C384.085815,795.714844 385.840942,796.152771 385.843445,798.619019 
	C385.846039,801.188660 383.942566,801.254761 382.013855,801.403381 
	C374.147888,802.009460 374.150146,802.038879 374.445099,810.297974 
z"/>
<path fill="#FFFFFF" opacity="1.000000" stroke="none" 
	d="
M687.074585,814.045166 
	C687.054504,820.701782 687.026733,826.865479 687.012634,833.029175 
	C687.006531,835.680176 686.222290,837.574707 683.093445,837.623779 
	C679.545837,837.679321 679.670593,835.227539 679.668152,832.829102 
	C679.659851,824.665955 679.606873,816.502197 679.685974,808.339844 
	C679.721252,804.693054 679.318481,801.568726 674.699402,801.270752 
	C673.117737,801.168701 672.267639,800.238159 672.336365,798.643738 
	C672.410217,796.929382 673.249634,795.728394 675.072266,795.722900 
	C680.733643,795.705811 686.395935,795.744324 692.056519,795.840393 
	C693.402527,795.863220 694.137756,796.765869 694.202209,798.130249 
	C694.259155,799.335144 694.204041,800.848938 692.835083,800.990112 
	C685.656799,801.730347 687.251953,807.094177 687.085449,811.553223 
	C687.060608,812.218811 687.075867,812.885864 687.074585,814.045166 
z"/>
<path fill="#FFFFFF" opacity="1.000000" stroke="none" 
	d="
M445.725342,834.465027 
	C445.683075,825.218994 445.566742,816.416748 445.716583,807.619019 
	C445.776123,804.122253 444.940491,801.735168 441.053558,801.431824 
	C439.165222,801.284424 437.826385,800.551270 437.910431,798.410095 
	C438.012482,795.808899 439.955811,795.729675 441.830933,795.720093 
	C446.645996,795.695618 451.461609,795.702393 456.276489,795.748901 
	C458.175934,795.767334 460.032898,795.976868 460.164246,798.533020 
	C460.281311,800.811951 458.817963,801.281799 456.972382,801.379944 
	C453.181946,801.581604 453.101440,804.336121 453.098389,807.103149 
	C453.088654,815.903320 453.111084,824.703613 453.079315,833.503662 
	C453.073212,835.190796 452.948212,837.007385 450.760834,837.323059 
	C448.624512,837.631226 446.282928,838.071594 445.725342,834.465027 
z"/>
<path fill="#E4D9FF" opacity="1.000000" stroke="none" 
	d="
M496.574097,685.860962 
	C494.086914,687.145996 491.813171,688.035278 489.785065,686.127747 
	C487.968140,684.418884 488.593536,682.060608 489.174957,680.047058 
	C489.843567,677.731384 490.021423,675.135254 492.140961,673.121582 
	C496.210510,673.656494 496.995789,678.177612 500.271667,679.578064 
	C499.388580,682.002441 499.465851,684.548401 496.574097,685.860962 
z"/>
<path fill="#E4D9FF" opacity="1.000000" stroke="none" 
	d="
M604.736023,483.087952 
	C601.146729,482.930756 598.007996,482.838135 594.879700,482.605591 
	C593.878601,482.531189 592.955200,481.996643 592.878418,480.781952 
	C592.817261,479.813599 593.479980,479.352997 594.272278,478.981750 
	C596.812012,477.791718 607.692627,479.069305 610.652771,481.065826 
	C609.466858,483.528625 607.191101,482.987457 604.736023,483.087952 
z"/>
<path fill="#E4D9FF" opacity="1.000000" stroke="none" 
	d="
M522.022461,681.985046 
	C517.010315,680.633911 512.232849,677.810913 505.926086,680.240295 
	C510.810760,675.182678 516.002747,675.893860 521.792725,681.741150 
	C521.992004,682.022888 522.010071,681.996094 522.022461,681.985046 
z"/>
<path fill="#E4D9FF" opacity="1.000000" stroke="none" 
	d="
M199.584900,525.428040 
	C206.004578,532.304260 207.257385,540.066223 204.506470,548.390320 
	C201.914108,556.234741 196.006714,560.462708 187.965546,561.796265 
	C178.073792,563.436768 166.880966,554.873718 163.860580,543.393066 
	C161.539886,534.571960 163.348068,527.803833 169.161087,523.553406 
	C176.319107,518.319519 188.633820,517.918457 196.174973,522.721008 
	C197.290710,523.431580 198.269608,524.356995 199.584900,525.428040 
z"/>
<path fill="#E4D9FF" opacity="1.000000" stroke="none" 
	d="
M264.955078,535.586914 
	C266.234528,553.578369 252.716583,565.547729 237.306183,560.571350 
	C227.353867,557.357422 221.615005,548.399414 222.977020,538.204407 
	C224.469513,527.032776 231.804565,519.433533 241.761475,518.743347 
	C254.288345,517.875000 261.718353,523.156006 264.955078,535.586914 
z"/>
<path fill="#E4D9FF" opacity="1.000000" stroke="none" 
	d="
M201.685257,563.825317 
	C202.711990,561.519348 203.499115,559.477356 204.652863,557.669373 
	C208.025253,552.384766 212.883408,550.965332 218.405869,553.468689 
	C223.475052,555.766541 227.214172,562.536926 226.079987,567.321045 
	C225.528717,569.646423 224.066406,571.214355 221.848099,571.819031 
	C216.465408,573.286316 211.081879,573.789734 205.710236,571.530151 
	C202.338745,570.111938 200.509354,568.022522 201.685257,563.825317 
z"/>
</svg>